<svg width="28" height="22" viewBox="0 0 28 22" fill="none" xmlns="http://www.w3.org/2000/svg">
<path d="M25.2475 0H2.12118C0.951654 0 0 1.12686 0 2.51171V4.19036V7.80772V18.6838C0 20.0686 0.951654 21.1952 2.12118 21.1952H25.2475C26.417 21.1952 27.3683 20.0686 27.3683 18.6838V7.80772V4.19036V2.51171C27.3683 1.12686 26.417 0 25.2475 0ZM0.880596 2.51171C0.880889 1.70159 1.43702 1.04307 2.12089 1.04307H25.2472C25.931 1.04307 26.4872 1.70194 26.4872 2.51171V3.66882H0.880596V2.51171ZM26.4875 18.6834C26.4875 19.4929 25.931 20.1517 25.2475 20.1517H2.12118C1.43732 20.1517 0.880889 19.4929 0.880889 18.6834V8.3289H26.4875V18.6834ZM26.4875 7.28584H0.880889V4.71154H26.4875V7.28584Z" fill="#00CC99"/>
<path d="M4.25805 18.0957C5.10517 18.0957 5.79403 17.2804 5.79403 16.2784C5.79403 15.2756 5.10517 14.4596 4.25805 14.4596C3.41151 14.4596 2.72266 15.2756 2.72266 16.2784C2.72266 17.2804 3.41151 18.0957 4.25805 18.0957ZM4.25805 15.5027C4.61921 15.5027 4.91314 15.8507 4.91314 16.2784C4.91314 16.7053 4.61921 17.0527 4.25805 17.0527C3.89718 17.0527 3.60355 16.7053 3.60355 16.2784C3.60355 15.8507 3.89718 15.5027 4.25805 15.5027Z" fill="#00CC99"/>
<path d="M7.54201 16.8611H19.952C20.1954 16.8611 20.3924 16.6278 20.3924 16.3395C20.3924 16.0513 20.1954 15.818 19.952 15.818H7.54201C7.29859 15.818 7.10156 16.0513 7.10156 16.3395C7.10156 16.6278 7.29859 16.8611 7.54201 16.8611Z" fill="#00CC99"/>
</svg>
